<?xml version="1.0" encoding="UTF-8"?>
<svg xmlns="http://www.w3.org/2000/svg" xmlns:xlink="http://www.w3.org/1999/xlink" width="262pt" height="243pt" viewBox="0 0 262 243" version="1.1">
<g id="surface1">
<path style=" stroke:none;fill-rule:evenodd;fill:rgb(92.941176%,10.980392%,14.117647%);fill-opacity:1;" d="M 130.996094 239.011719 C 121.921875 239.011719 117.253906 233.09375 117.253906 233.09375 C 109.796875 232.769531 51.496094 232.929688 51.496094 232.929688 L 45.820312 185.007812 C 45.820312 185.007812 9.914062 159.691406 6.992188 156.769531 C -10.242188 78.554688 52.058594 3.988281 131 3.988281 C 209.941406 3.988281 272.242188 78.554688 255.007812 156.769531 C 252.085938 159.691406 216.179688 185.007812 216.179688 185.007812 L 210.503906 232.929688 C 210.503906 232.929688 152.203125 232.769531 144.746094 233.09375 C 144.746094 233.09375 140.078125 239.011719 130.996094 239.011719 Z M 130.996094 239.011719 "/>
<path style=" stroke:none;fill-rule:evenodd;fill:rgb(100%,83.529412%,0%);fill-opacity:1;" d="M 131.082031 166.132812 L 125.574219 27.796875 C 118.929688 26.441406 101.980469 28.070312 92.898438 34.851562 L 119.335938 166.675781 C 119.335938 166.675781 83.273438 40.273438 83.273438 40.273438 C 74.625 40.167969 57.179688 54.792969 55.882812 59.125 L 108.488281 171.285156 C 108.488281 171.285156 49.375 68.753906 49.375 68.753906 C 43.546875 70.925781 30.800781 94.386719 32.835938 97.113281 C 32.835938 97.113281 98.726562 177.796875 98.726562 177.796875 L 30.9375 108.898438 C 30.9375 108.898438 22.125 122.324219 27.871094 145.066406 L 66.164062 172.730469 L 70.957031 210.519531 L 117.902344 210.519531 C 117.902344 210.519531 125.585938 217.800781 131.035156 217.800781 C 136.484375 217.800781 144.164062 210.519531 144.164062 210.519531 L 191.109375 210.519531 L 195.90625 172.730469 L 234.195312 145.066406 C 239.941406 122.324219 231.128906 108.898438 231.128906 108.898438 L 163.339844 177.796875 C 163.339844 177.796875 229.230469 97.113281 229.230469 97.113281 C 231.265625 94.386719 218.519531 70.925781 212.691406 68.753906 C 212.691406 68.753906 153.578125 171.285156 153.578125 171.285156 L 206.183594 59.125 C 204.886719 54.792969 187.441406 40.167969 178.796875 40.273438 C 178.796875 40.273438 142.730469 166.675781 142.730469 166.675781 L 169.167969 34.851562 C 160.085938 28.070312 143.136719 26.441406 136.496094 27.796875 Z M 131.082031 166.132812 "/>
</g>
</svg>
